<svg width="752pt" height="227pt" viewBox="0 0 752 227" xmlns="http://www.w3.org/2000/svg" xmlns:xlink="http://www.w3.org/1999/xlink">
<g id="graph0" class="graph" transform="scale(1 1) rotate(0) translate(4 222.8743)">
<title>summary</title>
<polygon fill="#ffffff" stroke="transparent" points="-4,4 -4,-222.8743 748.0821,-222.8743 748.0821,4 -4,4"></polygon>
<!-- start -->
<g id="node1" class="node">
<title>start</title>
<ellipse fill="none" stroke="#000000" cx="50.0821" cy="-101.4156" rx="50.1644" ry="29.3315"></ellipse>
<text text-anchor="middle" x="50.0821" y="-105.6156" font-family="Times,serif" font-size="14.00" fill="#000000">Start with</text>
<text text-anchor="middle" x="50.0821" y="-88.8156" font-family="Times,serif" font-size="14.00" fill="#000000"> a Node</text>
</g>
<!-- next -->
<g id="node2" class="node">
<title>next</title>
<polygon fill="none" stroke="#000000" points="162.1132,-36 40.051,-36 40.051,0 162.1132,0 162.1132,-36"></polygon>
<text text-anchor="middle" x="101.0821" y="-13.8" font-family="Times,serif" font-size="14.00" fill="#000000">Choose your shape</text>
</g>
<!-- start&#45;&gt;next -->
<g id="edge1" class="edge">
<title>start-&gt;next</title>
<path fill="none" stroke="#000000" d="M67.0644,-73.6394C72.7148,-64.3976 78.9956,-54.1248 84.607,-44.9468"></path>
<polygon fill="#000000" stroke="#000000" points="87.7169,-46.57 89.9471,-36.2125 81.7446,-42.9185 87.7169,-46.57"></polygon>
</g>
<!-- warning -->
<g id="node3" class="node">
<title>warning</title>
<ellipse fill="#00ff00" stroke="#0000ff" cx="383.0821" cy="-192.8528" rx="145.2975" ry="26.0431"></ellipse>
<text text-anchor="middle" x="383.0821" y="-185.6528" font-family="Times,serif" font-size="24.00" fill="#ff0000">Don't go overboard</text>
</g>
<!-- end -->
<g id="node4" class="node">
<title>end</title>
<polygon fill="#ffff00" stroke="#000000" points="441.3673,-119.4156 324.797,-119.4156 324.797,-83.4156 441.3673,-83.4156 441.3673,-119.4156"></polygon>
<text text-anchor="middle" x="383.0821" y="-97.2156" font-family="Times,serif" font-size="14.00" fill="#000000">Draw your graph!</text>
</g>
<!-- warning&#45;&gt;end -->
<g id="edge2" class="edge">
<title>warning-&gt;end</title>
<path fill="none" stroke="#000000" d="M383.0821,-166.4054C383.0821,-154.9369 383.0821,-141.4881 383.0821,-129.8094"></path>
<polygon fill="#000000" stroke="#000000" points="386.5822,-129.6892 383.0821,-119.6893 379.5822,-129.6893 386.5822,-129.6892"></polygon>
</g>
<!-- a -->
<g id="node5" class="node">
<title>a</title>
<ellipse fill="none" stroke="#000000" cx="153.0821" cy="-192.8528" rx="66.6517" ry="18"></ellipse>
<text text-anchor="middle" x="153.0821" y="-188.6528" font-family="Times,serif" font-size="14.00" fill="#000000">Alhamdulillah</text>
</g>
<!-- b -->
<g id="node6" class="node">
<title>b</title>
<polygon fill="#ffff00" stroke="#000000" points="188.5323,-119.4156 117.6319,-119.4156 117.6319,-83.4156 188.5323,-83.4156 188.5323,-119.4156"></polygon>
<text text-anchor="middle" x="153.0821" y="-97.2156" font-family="Times,serif" font-size="14.00" fill="#000000">Bismillah</text>
</g>
<!-- a&#45;&gt;b -->
<g id="edge3" class="edge">
<title>a-&gt;b</title>
<path fill="none" stroke="#0000ff" d="M153.0821,-174.7878C153.0821,-161.8885 153.0821,-144.2847 153.0821,-129.5536"></path>
<polygon fill="#0000ff" stroke="#0000ff" points="156.5822,-129.4431 153.0821,-119.4432 149.5822,-129.4432 156.5822,-129.4431"></polygon>
</g>
<!-- b&#45;&gt;next -->
<g id="edge4" class="edge">
<title>b-&gt;next</title>
<path fill="none" stroke="#000000" d="M141.7989,-83.3157C134.7803,-72.0568 125.6283,-57.3757 117.7792,-44.7846"></path>
<polygon fill="#000000" stroke="#000000" points="120.6036,-42.6992 112.3433,-36.0646 114.6633,-46.4023 120.6036,-42.6992"></polygon>
</g>
<!-- A1 -->
<g id="node7" class="node">
<title>A1</title>
<text text-anchor="middle" x="573.0821" y="-188.6528" font-family="Times,serif" font-size="14.00" fill="#000000">A1</text>
</g>
<!-- B1 -->
<g id="node8" class="node">
<title>B1</title>
<text text-anchor="middle" x="573.0821" y="-97.2156" font-family="Times,serif" font-size="14.00" fill="#000000">B1</text>
</g>
<!-- A1&#45;&gt;B1 -->
<g id="edge5" class="edge">
<title>A1-&gt;B1</title>
<path fill="none" stroke="#000000" d="M573.0821,-174.7878C573.0821,-161.8885 573.0821,-144.2847 573.0821,-129.5536"></path>
<polygon fill="#000000" stroke="#000000" points="576.5822,-129.4431 573.0821,-119.4432 569.5822,-129.4432 576.5822,-129.4431"></polygon>
</g>
<!-- A2 -->
<g id="node9" class="node">
<title>A2</title>
<text text-anchor="middle" x="645.0821" y="-188.6528" font-family="Times,serif" font-size="14.00" fill="#000000">A2</text>
</g>
<!-- B2 -->
<g id="node10" class="node">
<title>B2</title>
<text text-anchor="middle" x="645.0821" y="-97.2156" font-family="Times,serif" font-size="14.00" fill="#000000">B2</text>
</g>
<!-- A2&#45;&gt;B2 -->
<g id="edge6" class="edge">
<title>A2-&gt;B2</title>
<path fill="none" stroke="#000000" d="M645.0821,-174.7878C645.0821,-161.8885 645.0821,-144.2847 645.0821,-129.5536"></path>
<polygon fill="#000000" stroke="#000000" points="648.5822,-129.4431 645.0821,-119.4432 641.5822,-129.4432 648.5822,-129.4431"></polygon>
</g>
<!-- A3 -->
<g id="node11" class="node">
<title>A3</title>
<text text-anchor="middle" x="717.0821" y="-188.6528" font-family="Times,serif" font-size="14.00" fill="#000000">A3</text>
</g>
<!-- B3 -->
<g id="node12" class="node">
<title>B3</title>
<text text-anchor="middle" x="717.0821" y="-97.2156" font-family="Times,serif" font-size="14.00" fill="#000000">B3</text>
</g>
<!-- A3&#45;&gt;B3 -->
<g id="edge7" class="edge">
<title>A3-&gt;B3</title>
<path fill="none" stroke="#000000" d="M717.0821,-174.7878C717.0821,-161.8885 717.0821,-144.2847 717.0821,-129.5536"></path>
<polygon fill="#000000" stroke="#000000" points="720.5822,-129.4431 717.0821,-119.4432 713.5822,-129.4432 720.5822,-129.4431"></polygon>
</g>
</g>
</svg>