<svg width="332pt" height="98pt" viewBox="0 0 332 98" xmlns="http://www.w3.org/2000/svg" xmlns:xlink="http://www.w3.org/1999/xlink">
<g id="graph0" class="graph" transform="scale(1 1) rotate(0) translate(4 94)">
<title>example_02_rank_direction</title>
<polygon fill="#ffffff" stroke="transparent" points="-4,4 -4,-94 328,-94 328,4 -4,4"></polygon>
<!-- a -->
<g id="node1" class="node">
<title>a</title>
<ellipse fill="none" stroke="#000000" cx="27" cy="-45" rx="27" ry="18"></ellipse>
<text text-anchor="middle" x="27" y="-40.8" font-family="Times,serif" font-size="14.00" fill="#000000">a</text>
</g>
<!-- b -->
<g id="node2" class="node">
<title>b</title>
<ellipse fill="none" stroke="#000000" cx="117" cy="-45" rx="27" ry="18"></ellipse>
<text text-anchor="middle" x="117" y="-40.8" font-family="Times,serif" font-size="14.00" fill="#000000">b</text>
</g>
<!-- a&#45;&#45;b -->
<g id="edge1" class="edge">
<title>a--b</title>
<path fill="none" stroke="#000000" d="M54.003,-45C65.2905,-45 78.3867,-45 89.705,-45"></path>
</g>
<!-- c -->
<g id="node3" class="node">
<title>c</title>
<ellipse fill="none" stroke="#000000" cx="207" cy="-72" rx="27" ry="18"></ellipse>
<text text-anchor="middle" x="207" y="-67.8" font-family="Times,serif" font-size="14.00" fill="#000000">c</text>
</g>
<!-- b&#45;&#45;c -->
<g id="edge2" class="edge">
<title>b--c</title>
<path fill="none" stroke="#000000" d="M142.07,-52.521C154.657,-56.2971 169.8509,-60.8553 182.3755,-64.6126"></path>
</g>
<!-- d -->
<g id="node4" class="node">
<title>d</title>
<ellipse fill="none" stroke="#000000" cx="207" cy="-18" rx="27" ry="18"></ellipse>
<text text-anchor="middle" x="207" y="-13.8" font-family="Times,serif" font-size="14.00" fill="#000000">d</text>
</g>
<!-- b&#45;&#45;d -->
<g id="edge3" class="edge">
<title>b--d</title>
<path fill="none" stroke="#000000" d="M142.07,-37.479C154.657,-33.7029 169.8509,-29.1447 182.3755,-25.3874"></path>
</g>
<!-- e -->
<g id="node5" class="node">
<title>e</title>
<ellipse fill="none" stroke="#000000" cx="297" cy="-18" rx="27" ry="18"></ellipse>
<text text-anchor="middle" x="297" y="-13.8" font-family="Times,serif" font-size="14.00" fill="#000000">e</text>
</g>
<!-- d&#45;&#45;e -->
<g id="edge4" class="edge">
<title>d--e</title>
<path fill="none" stroke="#000000" d="M234.003,-18C245.2905,-18 258.3867,-18 269.705,-18"></path>
</g>
</g>
</svg>